<svg xmlns="http://www.w3.org/2000/svg" viewBox="0 0 64 64" fill="none">
  <circle cx="32" cy="32" r="32" fill="#0d1117"/>
  <!-- Trunk -->
  <rect x="29" y="32" width="6" height="22" rx="2" fill="#58a6ff"/>
  <!-- Roots -->
  <path d="M32 54 L20 64 M32 54 L32 64 M32 54 L44 64" stroke="#58a6ff" stroke-width="2.5" stroke-linecap="round"/>
  <!-- Main branches -->
  <path d="M32 32 L12 18 M32 32 L32 8 M32 32 L52 18" stroke="#58a6ff" stroke-width="3" stroke-linecap="round"/>
  <!-- Secondary branches -->
  <path d="M22 25 L10 22 M22 25 L18 12" stroke="#79c0ff" stroke-width="2" stroke-linecap="round"/>
  <path d="M42 25 L54 22 M42 25 L46 12" stroke="#79c0ff" stroke-width="2" stroke-linecap="round"/>
  <!-- Crown circles (leaves) -->
  <circle cx="32" cy="7" r="5" fill="#58a6ff" opacity="0.9"/>
  <circle cx="11" cy="17" r="5" fill="#58a6ff" opacity="0.9"/>
  <circle cx="53" cy="17" r="5" fill="#58a6ff" opacity="0.9"/>
  <circle cx="9" cy="21" r="3" fill="#79c0ff" opacity="0.7"/>
  <circle cx="17" cy="11" r="3" fill="#79c0ff" opacity="0.7"/>
  <circle cx="55" cy="21" r="3" fill="#79c0ff" opacity="0.7"/>
  <circle cx="47" cy="11" r="3" fill="#79c0ff" opacity="0.7"/>
</svg>
